<svg id="レイヤー_1" data-name="レイヤー 1" xmlns="http://www.w3.org/2000/svg" viewBox="0 0 41.54 41.54"><defs><style>.cls-1,.cls-2{fill:none;stroke:#1e2b5c;stroke-linecap:round;stroke-width:1.54px;}.cls-1{stroke-linejoin:round;}.cls-2{stroke-miterlimit:10;}</style></defs>
<path class="cls-1" d="M258.82,254.43l1.3-2.87,4.82-.79v-4.91l-4.5-.66-1.82-3.73,3-4.07-3.13-3.08-4.05,2.89-3.58-1.38-1.05-5.64h-4.3l-1,5.63-3.59,1.38-4-2.88-3.13,3.08,3,4.06-1.83,3.74-4.5.65v4.92l4.83.78,1.69,4.59-3.06,3.08,3.13,3.14,4.56-2.94,3,1.31.92,5.11h4.43l.91-5.11,1.72-.84m-4.7-6.11a5.77,5.77,0,1,1,5.59-5.92A5.75,5.75,0,0,1,247.81,253.78Z" transform="translate(-229.61 -229.41)"/><path class="cls-1" d="M252.77,255.57v14.61h17.61V255.57Zm17.52,3.1a.43.43,0,0,1-.44.42H253.26a.43.43,0,0,1-.44-.42v-3.05a.44.44,0,0,1,.44-.43h16.59a.43.43,0,0,1,.44.43Z" transform="translate(-229.61 -229.41)"/><polyline class="cls-2" points="25.07 33.03 26.59 34.44 29.34 31.68"/><polyline class="cls-2" points="24.94 37.01 26.56 38.5 29.48 35.57"/></svg>